<?xml version="1.0" encoding="UTF-8"?>
<svg width="160px" height="33px" viewBox="0 0 160 33" version="1.1" xmlns="http://www.w3.org/2000/svg" xmlns:xlink="http://www.w3.org/1999/xlink">
    <!-- Generator: Sketch 52.1 (67048) - http://www.bohemiancoding.com/sketch -->
    <title>Group 3</title>
    <desc>Created with Sketch.</desc>
    <g id="brand-book" stroke="none" stroke-width="1" fill="none" fill-rule="evenodd">
        <g id="Group-3">
            <g id="Group">
                <g id="Group-2">
                    <path d="M15.4545455,-7.46069873e-14 C23.4514913,-7.46069873e-14 30,6.36357536 30,14.2613308 C30,20.9091885 25.3636315,26.4771248 19.1054067,28.068403 L15.4545455,32.7272727 L11.8036842,28.068403 C5.54501755,26.4771248 0.909090909,20.9091885 0.909090909,14.2613308 C0.909090909,6.36357536 7.39971957,-7.46069873e-14 15.4545455,-7.46069873e-14" id="Fill-1" fill="#F79B2E"></path>
                    <path d="M8.44270918,10.2272233 L14.5274043,13.2388149 C15.1646371,13.5796463 16.207693,13.5796463 16.8453676,13.2388149 L22.9297314,10.2272233 C23.567406,9.94338023 23.567406,9.43158424 22.9297314,9.09075293 L16.8453676,6.07960051 C16.207693,5.7387692 15.1646371,5.7387692 14.5274043,6.07960051 L8.44270918,9.09075293 C7.80503454,9.37514503 7.80503454,9.886392 8.44270918,10.2272233" id="Fill-4" fill="#FFFFFF"></path>
                    <path d="M7.39967539,19.6593127 L13.6579002,22.7843317 C14.2955748,23.0681748 14.8168266,22.7273435 14.8168266,22.0456809 L14.8168266,16.0794858 C14.8168266,15.340835 14.2955748,14.5457449 13.6579002,14.2043646 L7.39967539,11.1363337 C6.76200076,10.8523809 6.24074896,11.193322 6.24074896,11.8749846 L6.24074896,17.7841914 C6.24074896,18.5228423 6.76200076,19.3180421 7.39967539,19.6593127" id="Fill-6" fill="#FFFFFF"></path>
                    <path d="M16.0337988,16.0794858 L16.0337988,21.9886926 C16.0337988,22.7273435 16.5554924,23.0681748 17.1927252,22.7273435 L23.5093824,19.7157519 C24.1466152,19.3749205 24.6684193,18.5228423 24.6684193,17.8411796 L24.6684193,11.8749846 C24.6684193,11.1363337 24.1466152,10.7955024 23.5093824,11.1363337 L17.1927252,14.2043646 C16.5554924,14.5457449 16.0337988,15.3978232 16.0337988,16.0794858" id="Fill-8" fill="#FFFFFF"></path>
                </g>
                <path d="M51.2221869,23.2218559 L51.1689447,23.2218559 C50.0508582,24.716596 48.0276542,25.6775004 45.7914812,25.6775004 C40.4140178,25.6775004 37.2727273,21.2466635 37.2727273,16.9759774 C37.2727273,12.9188256 40.6269866,8.32783797 45.9512079,8.32783797 C48.4003497,8.32783797 50.2638271,9.3955095 51.1689447,10.7834825 L51.2221869,10.7834825 L51.2221869,8.75490658 L54.7361729,8.75490658 L54.7361729,25.1970482 L51.2221869,25.1970482 L51.2221869,23.2218559 L51.2221869,23.2218559 Z M46.2174189,22.3143351 C48.986014,22.3143351 51.3819135,19.9120741 51.3819135,16.9759774 C51.3819135,14.0398807 48.986014,11.6376197 46.2174189,11.6376197 C43.3423395,11.6376197 40.9996821,14.0398807 40.9996821,16.9759774 C40.9996821,19.9120741 43.3423395,22.3143351 46.2174189,22.3143351 L46.2174189,22.3143351 Z M58.6760966,12.0646883 L56.3866815,12.0646883 L56.3866815,8.75490658 L58.6760966,8.75490658 L58.6760966,5.97896059 C58.6760966,2.93609672 60.5395741,0 64.798951,0 C65.6508264,0 66.7689129,0.16015073 67.5143039,0.427068614 L66.0767641,3.63008322 C65.5975842,3.41654891 65.1716465,3.30978176 64.53274,3.30978176 C63.0952003,3.30978176 62.2433249,4.48422044 62.2433249,5.71204271 L62.2433249,8.701523 L65.7573109,8.701523 L65.7573109,12.0113048 L62.2433249,12.0113048 L62.2433249,25.1436646 L58.7293388,25.1436646 L58.7293388,12.0646883 L58.6760966,12.0646883 Z M69.6439924,12.0646883 L67.6207883,12.0646883 L67.6207883,8.75490658 L69.6439924,8.75490658 L69.6439924,3.84361752 L73.1579784,3.84361752 L73.1579784,8.75490658 L75.6603624,8.75490658 L75.6603624,12.0646883 L73.1579784,12.0646883 L73.1579784,25.1970482 L69.6439924,25.1970482 L69.6439924,12.0646883 L69.6439924,12.0646883 Z M92.6446281,21.6203486 C90.6746662,24.1293767 87.9593134,25.6241168 85.0309917,25.6241168 C79.2808328,25.6241168 75.9798156,21.3000471 75.9798156,16.9225938 C75.9798156,12.5451405 79.2808328,8.27445439 85.0309917,8.27445439 C88.4384933,8.27445439 93.5497457,11.103784 93.5497457,17.5098132 L93.5497457,18.1504161 L79.9197394,18.1504161 C80.1327082,20.6594442 82.4753655,22.4744858 84.9245073,22.4744858 C86.841227,22.4744858 88.4384933,21.566965 89.6630642,19.9120741 L92.6446281,21.6203486 L92.6446281,21.6203486 Z M89.3436109,15.2677029 C88.59822,12.7586748 86.7347425,11.4240854 84.4985696,11.4240854 C82.2623967,11.4240854 80.4521615,12.8120584 79.8664971,15.2677029 L89.3436109,15.2677029 L89.3436109,15.2677029 Z M94.9340432,8.75490658 L98.2350604,8.75490658 L98.2350604,10.5699482 L98.2883026,10.5699482 C98.8739669,9.23535877 100.098538,8.32783797 101.536078,8.32783797 C102.334711,8.32783797 102.973617,8.54137227 103.452797,8.86167373 L102.174984,12.3849898 C101.855531,12.1180719 101.216624,11.9045376 100.843929,11.9045376 C99.5661157,11.9045376 98.394787,12.865442 98.394787,14.4135657 L98.394787,25.3038154 L94.880801,25.3038154 L94.880801,8.75490658 L94.9340432,8.75490658 Z M105.422759,20.2857591 C106.700572,21.6203486 108.723776,22.6880201 110.587254,22.6880201 C112.610458,22.6880201 113.835029,21.5135814 113.835029,20.6060606 C113.835029,19.5383891 112.983153,18.9511697 111.70534,18.6842518 L109.682136,18.3105668 C105.050064,17.4564296 103.77225,15.9616894 103.77225,13.6128121 C103.77225,10.8368661 106.114908,8.22107081 110.214558,8.22107081 C112.503973,8.22107081 114.473935,8.91505731 116.710108,10.5165646 L114.686904,13.0255927 C112.983153,11.5842361 111.439129,11.2105511 110.2678,11.2105511 C108.723776,11.2105511 107.232994,11.9579212 107.232994,13.2925106 C107.232994,14.253415 108.031627,14.7872507 109.362683,15.0007851 L112.929911,15.6947715 C115.858233,16.2286073 117.295772,17.6165803 117.295772,20.0722248 C117.295772,22.4744858 115.325811,25.6241168 110.321043,25.6241168 C107.552448,25.6241168 105.156548,24.6632124 102.920375,22.7414037 L105.422759,20.2857591 L105.422759,20.2857591 Z M135.611093,8.75490658 L139.125079,8.75490658 L139.125079,25.1970482 L135.611093,25.1970482 L135.611093,8.75490658 L135.611093,8.75490658 Z M118.520343,3.84361752 L122.034329,3.84361752 L122.034329,10.8368661 L122.087572,10.8368661 C123.045931,9.28874235 124.856167,8.32783797 127.092339,8.32783797 C130.553083,8.32783797 133.481405,11.2105511 133.481405,15.3210865 L133.481405,25.2504318 L129.967419,25.2504318 L129.967419,16.0684566 C129.967419,13.0789763 128.423395,11.851154 126.080737,11.851154 C123.791322,11.851154 122.034329,13.2925106 122.034329,16.015073 L122.034329,25.2504318 L118.520343,25.2504318 L118.520343,3.84361752 L118.520343,3.84361752 Z M145.141449,10.7300989 L145.194692,10.7300989 C146.472505,9.18197519 148.335982,8.27445439 150.572155,8.27445439 C155.949619,8.27445439 159.090909,12.7052913 159.090909,16.9759774 C159.090909,21.0331292 155.73665,25.6241168 150.412428,25.6241168 C147.963287,25.6241168 146.099809,24.5564453 145.194692,23.1684723 L145.141449,23.1684723 L145.141449,30.9090909 L141.627463,30.9090909 L141.627463,8.75490658 L145.141449,8.75490658 L145.141449,10.7300989 L145.141449,10.7300989 Z M150.146217,11.6376197 C147.377622,11.6376197 144.981723,14.0398807 144.981723,16.9759774 C144.981723,19.9120741 147.377622,22.3143351 150.146217,22.3143351 C153.021297,22.3143351 155.363954,19.9120741 155.363954,16.9759774 C155.363954,14.0398807 153.021297,11.6376197 150.146217,11.6376197 L150.146217,11.6376197 Z M137.421329,3.63008322 C138.486173,3.63008322 139.391291,4.53760402 139.391291,5.60527555 C139.391291,6.67294709 138.486173,7.58046789 137.421329,7.58046789 C136.356484,7.58046789 135.451367,6.67294709 135.451367,5.60527555 C135.451367,4.48422044 136.303242,3.63008322 137.421329,3.63008322 L137.421329,3.63008322 Z" id="aftership" fill="#000000"></path>
            </g>
        </g>
    </g>
</svg>