<?xml version="1.0" encoding="UTF-8"?>
<svg width="150px" height="32px" viewBox="0 0 150 32" version="1.1" xmlns="http://www.w3.org/2000/svg" xmlns:xlink="http://www.w3.org/1999/xlink">
    <!-- Generator: Sketch 52.1 (67048) - http://www.bohemiancoding.com/sketch -->
    <title>Group</title>
    <desc>Created with Sketch.</desc>
    <g id="brand-book" stroke="none" stroke-width="1" fill="none" fill-rule="evenodd">
        <g id="A4" transform="translate(-72.000000, -409.000000)">
            <g id="Group-5" transform="translate(47.000000, 375.000000)">
                <g id="Group-3">
                    <g id="Group" transform="translate(25.000000, 34.000000)">
                        <path d="M13.824993,0 C21.4258363,0 27.649986,6.07945557 27.649986,13.6245935 C27.649986,19.9756387 23.2432649,25.2949788 17.2950208,26.8152098 L13.824993,31.2660712 L10.3549652,26.8152098 C4.40630117,25.2949788 2.27373675e-13,19.9756387 2.27373675e-13,13.6245935 C2.27373675e-13,6.07945557 6.1691366,0 13.824993,0" id="Combined-Shape" fill="#F9A31A"></path>
                        <path d="M7.16046512,9.77060005 L12.9437748,12.6477307 C13.5494443,12.9733446 14.5408358,12.9733446 15.1469254,12.6477307 L20.9299201,9.77060005 C21.5360096,9.49942993 21.5360096,9.01048452 20.9299201,8.68487059 L15.1469254,5.80815957 C14.5408358,5.48254564 13.5494443,5.48254564 12.9437748,5.80815957 L7.16046512,8.68487059 C6.55437561,8.9565652 6.55437561,9.44498611 7.16046512,9.77060005" id="Fill-4" fill="#FFFFFF"></path>
                        <path d="M6.1690946,18.7815671 L12.1173387,21.7670609 C12.7234282,22.038231 13.2188615,21.712617 13.2188615,21.0613892 L13.2188615,15.3615718 C13.2188615,14.6559001 12.7234282,13.8963091 12.1173387,13.5701706 L6.1690946,10.6391207 C5.56300509,10.3678457 5.0675718,10.6935645 5.0675718,11.3447924 L5.0675718,16.990166 C5.0675718,17.6958377 5.56300509,18.4555336 6.1690946,18.7815671" id="Fill-6" fill="#FFFFFF"></path>
                        <path d="M14.3755549,15.3615718 L14.3755549,21.0069454 C14.3755549,21.712617 14.8714082,22.038231 15.4770777,21.712617 L21.4808599,18.8354864 C22.0865295,18.5098725 22.5824877,17.6958377 22.5824877,17.0446098 L22.5824877,11.3447924 C22.5824877,10.6391207 22.0865295,10.3135067 21.4808599,10.6391207 L15.4770777,13.5701706 C14.8714082,13.8963091 14.3755549,14.7103439 14.3755549,15.3615718" id="Fill-8" fill="#FFFFFF"></path>
                        <path d="M46.1253946,23.0206036 L46.074289,23.0206036 C45.0010708,24.4480121 43.059057,25.3656318 40.9126208,25.3656318 C35.7509526,25.3656318 32.7357207,21.1343852 32.7357207,17.0560751 C32.7357207,13.1816806 35.9553751,8.79749734 41.0659376,8.79749734 C43.4167964,8.79749734 45.2054933,9.81707485 46.074289,11.1425256 L46.1253946,11.1425256 L46.1253946,9.20532834 L49.4983659,9.20532834 L49.4983659,24.9068219 L46.1253946,24.9068219 L46.1253946,23.0206036 L46.1253946,23.0206036 Z M41.3214658,22.1539627 C43.9789583,22.1539627 46.2787115,19.8599133 46.2787115,17.0560751 C46.2787115,14.252237 43.9789583,11.9581876 41.3214658,11.9581876 C38.561762,11.9581876 36.3131145,14.252237 36.3131145,17.0560751 C36.3131145,19.8599133 38.561762,22.1539627 41.3214658,22.1539627 L41.3214658,22.1539627 Z M53.2801822,12.3660186 L51.0826403,12.3660186 L51.0826403,9.20532834 L53.2801822,9.20532834 L53.2801822,6.55442683 C53.2801822,3.64863093 55.0688791,0.844792791 59.1573291,0.844792791 C59.9750191,0.844792791 61.0482373,0.997729417 61.763716,1.25262379 L60.3838641,4.31135631 C59.9239135,4.10744081 59.5150685,4.00548306 58.901801,4.00548306 C57.5219491,4.00548306 56.7042591,5.12701832 56.7042591,6.29953245 L56.7042591,9.15434947 L60.0772304,9.15434947 L60.0772304,12.3150397 L56.7042591,12.3150397 L56.7042591,24.8558431 L53.3312878,24.8558431 L53.3312878,12.3660186 L53.2801822,12.3660186 Z M63.8079411,12.3660186 L61.8659273,12.3660186 L61.8659273,9.20532834 L63.8079411,9.20532834 L63.8079411,4.51527181 L67.1809124,4.51527181 L67.1809124,9.20532834 L69.5828768,9.20532834 L69.5828768,12.3660186 L67.1809124,12.3660186 L67.1809124,24.9068219 L63.8079411,24.9068219 L63.8079411,12.3660186 L63.8079411,12.3660186 Z M85.8855714,21.4912373 C83.9946632,23.8872444 81.3882763,25.3146529 78.5774669,25.3146529 C73.0580593,25.3146529 69.8895105,21.185364 69.8895105,17.0050963 C69.8895105,12.8248285 73.0580593,8.74651847 78.5774669,8.74651847 C81.8482269,8.74651847 86.754367,11.4483989 86.754367,17.5658639 L86.754367,18.1776104 L73.6713268,18.1776104 C73.8757493,20.5736175 76.1243968,22.3068993 78.4752556,22.3068993 C80.3150582,22.3068993 81.8482269,21.4402584 83.0236563,19.8599133 L85.8855714,21.4912373 L85.8855714,21.4912373 Z M82.7170226,15.4247511 C82.0015438,13.028744 80.2128469,11.7542721 78.0664106,11.7542721 C75.9199743,11.7542721 74.1823831,13.0797229 73.6202212,15.4247511 L82.7170226,15.4247511 L82.7170226,15.4247511 Z M88.0831133,9.20532834 L91.251662,9.20532834 L91.251662,10.9386101 L91.3027677,10.9386101 C91.8649296,9.66413822 93.0403589,8.79749734 94.4202108,8.79749734 C95.1867952,8.79749734 95.8000627,9.00141284 96.2600134,9.3072861 L95.0334783,12.6718919 C94.7268446,12.4169975 94.1135771,12.213082 93.7558377,12.213082 C92.5293027,12.213082 91.4049789,13.1307017 91.4049789,14.6090891 L91.4049789,25.0087797 L88.0320076,25.0087797 L88.0320076,9.20532834 L88.0831133,9.20532834 Z M98.1509215,20.2167654 C99.3774565,21.4912373 101.31947,22.5108148 103.108167,22.5108148 C105.050181,22.5108148 106.22561,21.3892795 106.22561,20.5226387 C106.22561,19.5030612 105.40792,18.9422935 104.181385,18.6873992 L102.239372,18.330547 C97.7931821,17.514885 96.5666471,16.0874765 96.5666471,13.844406 C96.5666471,11.1935045 98.8152946,8.69553959 102.750428,8.69553959 C104.94797,8.69553959 106.838878,9.35826497 108.985314,10.8876312 L107.0433,13.2836384 C105.40792,11.9072087 103.925857,11.5503566 102.801533,11.5503566 C101.31947,11.5503566 99.8885128,12.2640609 99.8885128,13.5385327 C99.8885128,14.4561525 100.655097,14.9659413 101.932738,15.1698568 L105.356815,15.8325821 C108.167624,16.3423709 109.547476,17.6678216 109.547476,20.0128499 C109.547476,22.3068993 107.656568,25.3146529 102.852639,25.3146529 C100.195147,25.3146529 97.8953934,24.3970332 95.7489571,22.5617937 L98.1509215,20.2167654 L98.1509215,20.2167654 Z M127.127811,9.20532834 L130.500783,9.20532834 L130.500783,24.9068219 L127.127811,24.9068219 L127.127811,9.20532834 L127.127811,9.20532834 Z M110.722905,4.51527181 L114.095877,4.51527181 L114.095877,11.1935045 L114.146982,11.1935045 C115.066884,9.7151171 116.804475,8.79749734 118.950911,8.79749734 C122.272777,8.79749734 125.083586,11.5503566 125.083586,15.47573 L125.083586,24.9578008 L121.710615,24.9578008 L121.710615,16.1894343 C121.710615,13.3346172 120.228552,12.1621031 117.979904,12.1621031 C115.782362,12.1621031 114.095877,13.5385327 114.095877,16.1384554 L114.095877,24.9578008 L110.722905,24.9578008 L110.722905,4.51527181 L110.722905,4.51527181 Z M136.275718,11.0915467 L136.326824,11.0915467 C137.553359,9.61315935 139.342056,8.74651847 141.488492,8.74651847 C146.65016,8.74651847 149.665392,12.9777651 149.665392,17.0560751 C149.665392,20.9304697 146.445738,25.3146529 141.335175,25.3146529 C138.984316,25.3146529 137.19562,24.2950754 136.326824,22.9696247 L136.275718,22.9696247 L136.275718,30.3615616 L132.902747,30.3615616 L132.902747,9.20532834 L136.275718,9.20532834 L136.275718,11.0915467 L136.275718,11.0915467 Z M141.079647,11.9581876 C138.422155,11.9581876 136.122401,14.252237 136.122401,17.0560751 C136.122401,19.8599133 138.422155,22.1539627 141.079647,22.1539627 C143.839351,22.1539627 146.087998,19.8599133 146.087998,17.0560751 C146.087998,14.252237 143.839351,11.9581876 141.079647,11.9581876 L141.079647,11.9581876 Z M128.865403,4.31135631 C129.887515,4.31135631 130.756311,5.17799719 130.756311,6.1975747 C130.756311,7.21715221 129.887515,8.08379309 128.865403,8.08379309 C127.84329,8.08379309 126.974494,7.21715221 126.974494,6.1975747 C126.974494,5.12701832 127.792184,4.31135631 128.865403,4.31135631 L128.865403,4.31135631 Z" id="aftership" fill="#FFFFFF"></path>
                    </g>
                </g>
            </g>
        </g>
    </g>
</svg>